<svg xmlns="http://www.w3.org/2000/svg" width="512" height="512">
<style>
  #background { fill: #2E3192 }
  #hands { fill: #FFF }

  @media (prefers-color-scheme: dark) {
    #background { fill: #FFF }
    #hands { fill: #2E3192 }
  }
</style>
<path id="background" d="M0 0h512v512H0z"/>
<path id="hands" d="M440.102 96.457C416.399 75.434 385.664 64 353.192 64h-3.922c-33.845 1.027-65.309 14.279-88.619 37.541L256 106.178l-4.651-4.637C228.039 78.305 196.575 65.027 162.73 64h-3.922c-32.472 0-63.207 11.434-86.91 32.457-24.71 21.839-38.832 51.424-39.84 83.328-1.009 31.824 11.207 62.173 34.573 85.462L256 448l189.509-182.885c23.226-23.183 35.442-53.532 34.433-85.356-1.008-31.851-15.101-61.436-39.84-83.302ZM52.791 180.364c.812-26.66 12.691-51.424 33.284-69.655 19.864-17.598 45.584-27.188 72.733-27.188 1.093 0 2.157 0 3.25.053 28.353.764 54.69 11.934 74.162 31.298l110.612 110.041c-13.925 7.877-32.08 6.349-44.491-4.584l-57.688-51.056c-14.121 13.91-37.935 14.859-52.813 1.713l-41.801-37.094-14.177 14.227 41.802 37.093c10.758 9.51 24.459 14.147 38.215 14.489l-92.513 92.339-41.746-40.281c-19.444-19.39-29.698-44.786-28.83-71.395Zm193.627 17.309 20.425 18.046-109.38 109.251-19.612-18.915 108.567-108.382Zm35.498 31.403 6.22 5.506c4.427 3.951 9.666 6.639 14.989 9.036l-113.05 112.861-18.155-17.52 109.996-109.883Zm-45.668 171.925 18.267-17.967 20.705 18.468L256 420.048l-19.752-19.047Zm101.983-60.25-17.035 16.439-21.181-18.942 16.839-16.597 21.377 19.1Zm-7.033-33.221 16.839-16.571 21.685 19.337-17.062 16.466-21.462-19.232Zm-24.515 63.623-16.978 16.386-20.845-18.626 16.782-16.544 21.041 18.784ZM430.52 251.679l-46.285 44.681-36.843-32.931-125.601 123.609-17.175-16.57L326.127 249.15c.589.027 1.093.29 1.681.29h1.485c15.41-.369 29.727-6.349 40.317-16.966l6.696-6.665-106.017-105.405 5.547-5.532c19.444-19.364 45.781-30.534 74.162-31.298 28.69-1.449 55.306 8.826 75.983 27.109 20.593 18.23 32.472 42.994 33.284 69.655.841 26.635-9.441 52.031-28.745 71.341Z"/>
</svg>